<?xml version="1.0" encoding="utf-8"?>
<!-- Generator: Adobe Illustrator 16.0.0, SVG Export Plug-In . SVG Version: 6.00 Build 0)  -->
<!DOCTYPE svg PUBLIC "-//W3C//DTD SVG 1.1//EN" "http://www.w3.org/Graphics/SVG/1.1/DTD/svg11.dtd">
<svg version="1.1" id="Layer_1" xmlns="http://www.w3.org/2000/svg" xmlns:xlink="http://www.w3.org/1999/xlink" x="0px" y="0px"
	 width="284px" height="140px" viewBox="0 0 284 140" enable-background="new 0 0 284 140" xml:space="preserve">
<g id="Layer_2_6_">
	<g>
		<g enable-background="new    ">
			<path fill="#4A85C1" d="M135.642,55.091c-0.382,1.08-3.113,3.727-8.194,7.943l-0.75-0.004c-0.478-0.226-0.536-1.044-0.176-2.458
				c0.703-2.854,0.543-5.194-0.481-7.018c-1.025-1.824-2.704-2.743-5.036-2.757c-2.195-0.013-4.365,0.771-6.51,2.352
				c-2.146,1.581-3.609,3.479-4.393,5.691c-0.566,1.604-0.673,3.329-0.318,5.175s1.926,4.778,4.716,8.797
				c2.79,4.02,4.363,7.217,4.72,9.592c0.357,2.375,0.158,4.629-0.596,6.762c-1.743,4.93-5.424,9.258-11.041,12.984
				c-5.619,3.727-11.302,5.572-17.05,5.537c-4.749-0.027-8.275-1.154-10.58-3.373c-2.305-2.221-3.212-4.021-2.722-5.408
				c0.274-0.775,1.758-2.57,4.451-5.385c2.691-2.814,4.164-4.221,4.414-4.221c0.889,0.006,1.43,0.268,1.624,0.781
				c0.193,0.516,0.114,1.465-0.236,2.85c-1.11,4.324-1.116,7.307-0.013,8.951c1.103,1.645,3.001,2.475,5.695,2.49
				c2.942,0.018,5.871-0.982,8.784-3.004s4.845-4.373,5.794-7.057c0.488-1.383,0.584-2.857,0.285-4.428
				c-0.3-1.566-1.761-4.242-4.385-8.023c-2.623-3.781-4.086-6.979-4.388-9.588c-0.302-2.611-0.016-5.149,0.855-7.614
				c1.519-4.292,4.539-8.229,9.062-11.81s9.476-5.355,14.864-5.323c4.083,0.025,7.148,0.98,9.194,2.867
				C135.279,52.278,136.083,53.845,135.642,55.091z"/>
		</g>
	</g>
</g>
<g id="Layer_2_4_">
	<g>
		<g enable-background="new    ">
			<path fill="#4A85C1" d="M144.027,101.408c-1.065,0.711-2.031,1.211-2.9,1.498c-0.867,0.291-1.524,0.434-1.971,0.43
				c-1.146-0.006-2.129-0.457-2.943-1.354c-3.518,3.447-6.758,5.162-9.719,5.145c-1.848-0.012-3.1-0.711-3.758-2.1
				s-0.583-3.227,0.226-5.512c1.28-3.621,3.669-6.721,7.168-9.301c3.497-2.58,7.037-3.859,10.62-3.838
				c1.354,0.008,2.292,0.16,2.817,0.459c0.524,0.297,0.79,0.645,0.792,1.043c0.003,0.396-0.103,0.896-0.316,1.502
				c-1.05,2.969-3.149,6.607-6.301,10.916c0.547,0.752,1.268,1.129,2.16,1.135c1.066,0.006,2.764-0.914,5.094-2.762L144.027,101.408
				z M140.853,88.049c-0.204-0.098-0.53-0.146-0.976-0.15c-2.07-0.012-4.072,1.057-6.007,3.211
				c-1.934,2.152-3.411,4.672-4.434,7.563c-0.567,1.604-0.754,2.852-0.559,3.744s0.747,1.34,1.654,1.346
				c1.131,0.008,2.725-1.025,4.782-3.098c-0.834-1.883-0.869-3.902-0.105-6.063C136.107,92.061,137.988,89.877,140.853,88.049z"/>
			<path fill="#4A85C1" d="M185.25,101.658c-2.676,1.926-4.894,3.367-6.652,4.328c-1.76,0.959-3.309,1.436-4.646,1.428
				c-1.051-0.006-1.756-0.373-2.112-1.1c-0.358-0.727-0.32-1.699,0.112-2.922c0.605-1.715,1.805-3.889,3.598-6.52
				c1.791-2.629,2.789-4.23,2.99-4.803c0.18-0.508,0.008-0.764-0.518-0.766c-0.16-0.002-0.371,0.053-0.633,0.162
				c-0.278,0.109-0.605,0.268-0.98,0.471c-0.382,0.221-0.803,0.49-1.266,0.805c-0.463,0.316-0.958,0.68-1.485,1.09
				c-0.561,0.41-1.134,0.859-1.723,1.35c-0.992,0.822-1.65,1.51-1.974,2.064l-2,3.402l-3.432,5.613l-6.438,1.057l5.787-9.799
				c0.428-0.715,1.005-1.76,1.732-3.141c0.727-1.379,1.139-2.205,1.234-2.475c0.191-0.539,0.103-0.811-0.264-0.813
				c-0.111,0-0.29,0.053-0.536,0.164c-0.278,0.109-0.608,0.273-0.989,0.494c-0.439,0.252-0.922,0.553-1.442,0.898
				c-0.564,0.379-1.182,0.813-1.849,1.303c-0.711,0.52-1.457,1.096-2.239,1.729c-1.067,0.854-1.899,1.85-2.493,2.992
				c-0.738,1.363-1.347,2.586-1.822,3.664c-0.494,1.08-0.985,2.285-1.473,3.619l-5.748,1.23c0.518-1.828,0.992-3.352,1.425-4.574
				c1.027-2.906,2.225-5.432,3.591-7.58c1.365-2.148,3.241-4.654,5.628-7.52l6.176-1.086c-1.951,2.582-3.64,5.078-5.065,7.488
				c6.04-4.943,10.199-7.408,12.477-7.395c0.828,0.004,1.381,0.346,1.66,1.023c0.278,0.68,0.225,1.564-0.162,2.66
				c-0.18,0.51-0.592,1.445-1.233,2.809c3.642-2.666,6.19-4.404,7.652-5.215c1.459-0.813,2.684-1.213,3.671-1.207
				c0.876,0.004,1.469,0.357,1.779,1.061s0.274,1.594-0.107,2.672c-0.601,1.701-1.842,3.881-3.723,6.543
				c-1.881,2.664-2.973,4.422-3.275,5.279c-0.313,0.889-0.146,1.334,0.507,1.338c0.413,0.002,1.087-0.27,2.02-0.813
				s2.669-1.793,5.21-3.75L185.25,101.658z"/>
			<path fill="#4A85C1" d="M216.823,101.85c-3.401,2.398-5.78,3.959-7.137,4.682c-1.357,0.725-2.538,1.084-3.54,1.078
				c-2.516-0.016-2.919-2.238-1.209-6.666c-2.396,2.26-4.457,3.926-6.185,4.998c-1.728,1.07-3.308,1.602-4.741,1.594
				c-1.4-0.008-2.359-0.67-2.874-1.986c-0.517-1.316-0.437-2.926,0.236-4.832c0.843-2.381,2.302-4.648,4.379-6.801
				c2.077-2.15,4.378-3.887,6.903-5.209c2.526-1.32,4.578-1.977,6.154-1.967c1.99,0.012,3.06,0.934,3.211,2.764l5.834-2.66
				l1.34,0.008l-4.574,6.965c-2.326,3.504-3.72,5.906-4.181,7.207c-0.482,1.365-0.238,2.051,0.732,2.057
				c0.621,0.004,1.422-0.322,2.401-0.975c0.981-0.656,2.388-1.654,4.218-2.994L216.823,101.85z M198.877,103.053
				c1.592,0.01,3.57-1.334,5.938-4.033c2.366-2.697,3.955-5.191,4.763-7.477c0.314-0.889,0.361-1.584,0.14-2.088
				c-0.221-0.502-0.665-0.756-1.334-0.76c-1.593-0.01-3.579,1.33-5.959,4.021c-2.379,2.691-3.971,5.172-4.773,7.441
				c-0.303,0.857-0.338,1.555-0.104,2.088C197.78,102.781,198.223,103.049,198.877,103.053z"/>
			<path fill="#4A85C1" d="M238.677,101.98c-2.867,1.973-5.284,3.426-7.251,4.361c-1.965,0.936-3.689,1.396-5.17,1.389
				c-1.703-0.01-2.845-0.678-3.421-2.002c-0.577-1.324-0.474-3.098,0.313-5.32c1.179-3.334,3.318-7.332,6.418-11.99
				c3.101-4.66,6.382-8.953,9.844-12.877l6.859-2.203c0.213-0.061,0.367-0.092,0.463-0.092c0.462,0.002,0.721,0.344,0.777,1.018
				c0.055,0.678-0.119,1.588-0.523,2.73c-1.146,3.24-3.003,6.371-5.572,9.395s-6.055,6.25-10.458,9.676
				c-0.712,1.65-1.177,2.785-1.396,3.404c-0.488,1.381-0.621,2.479-0.397,3.291c0.223,0.813,0.756,1.223,1.6,1.227
				c0.86,0.006,1.886-0.299,3.075-0.912c1.191-0.613,3.127-1.891,5.808-3.832L238.677,101.98z M232.822,92.615
				c2.814-2.23,5.344-4.734,7.585-7.508c2.242-2.775,3.718-5.166,4.427-7.168c0.208-0.588,0.287-1.063,0.238-1.42
				c-0.049-0.359-0.208-0.541-0.479-0.541c-0.59-0.004-1.963,1.453-4.12,4.371C238.316,83.27,235.766,87.359,232.822,92.615z"/>
			<path fill="#4A85C1" d="M256.494,102.09c-5.108,3.883-8.586,5.82-10.433,5.809c-1.02-0.006-1.694-0.531-2.027-1.576
				s-0.222-2.352,0.334-3.924c1.196-3.383,3.999-8.059,8.408-14.031l6.514-1.227l0.286,0.002l-5.023,7.439
				c-2.078,3.076-3.349,5.271-3.814,6.59c-0.186,0.523-0.221,0.949-0.104,1.275c0.115,0.328,0.349,0.492,0.698,0.494
				c0.621,0.004,1.326-0.219,2.114-0.668c0.789-0.449,2.127-1.422,4.016-2.924L256.494,102.09z M264.59,77.84
				c-1.348,3.813-3.432,5.709-6.25,5.691c-1.369-0.008-2.394-0.428-3.072-1.26c1.417-1.391,2.689-2.959,3.817-4.701
				c0.982,0.785,1.856,1.18,2.62,1.184C262.565,78.76,263.526,78.455,264.59,77.84z"/>
		</g>
	</g>
</g>
<rect x="54.913" y="48.169" fill="#921A1D" width="12.25" height="14.128"/>
<rect x="54.913" y="65.324" fill="#921A1D" width="12.25" height="14.127"/>
<rect x="69.041" y="48.169" fill="#921A1D" width="12.248" height="14.128"/>
<rect x="69.041" y="65.324" fill="#921A1D" width="12.248" height="14.127"/>
<g>
	<g>
		<path fill="none" stroke="#9F1F21" stroke-miterlimit="10" d="M5.551,102.27"/>
	</g>
</g>
<g>
	<g>
		<path fill="none" stroke="#9F1F21" stroke-miterlimit="10" d="M47.261,57.352"/>
	</g>
</g>
<g>
	<path fill="#8BA7BD" d="M39.191,123.949v5.777c0,0.084-0.026,0.16-0.078,0.229c-0.053,0.066-0.139,0.123-0.259,0.164
		c-0.119,0.043-0.281,0.076-0.485,0.102s-0.459,0.039-0.763,0.039c-0.312,0-0.568-0.014-0.769-0.039
		c-0.199-0.025-0.361-0.059-0.485-0.102c-0.124-0.041-0.21-0.098-0.259-0.164c-0.048-0.068-0.071-0.145-0.071-0.229v-5.777
		L31.772,115c-0.151-0.314-0.25-0.557-0.294-0.73s-0.02-0.305,0.072-0.393c0.092-0.09,0.262-0.145,0.51-0.166
		s0.593-0.031,1.032-0.031c0.368,0,0.662,0.008,0.883,0.025c0.22,0.016,0.394,0.049,0.522,0.096
		c0.128,0.045,0.222,0.107,0.281,0.184c0.061,0.076,0.118,0.174,0.175,0.291l1.729,4.037c0.168,0.391,0.334,0.801,0.498,1.232
		s0.33,0.885,0.498,1.357h0.023c0.152-0.457,0.309-0.9,0.469-1.332s0.315-0.842,0.468-1.232l1.705-4.012
		c0.04-0.135,0.09-0.242,0.149-0.322c0.061-0.082,0.15-0.146,0.271-0.197s0.284-0.086,0.492-0.102
		c0.208-0.018,0.484-0.025,0.828-0.025c0.456,0,0.811,0.01,1.063,0.031s0.424,0.076,0.516,0.166
		c0.092,0.088,0.114,0.221,0.066,0.398s-0.145,0.42-0.288,0.725L39.191,123.949z"/>
	<path fill="#8BA7BD" d="M55.753,123.975c0,0.965-0.12,1.846-0.36,2.641c-0.24,0.797-0.604,1.482-1.092,2.057
		c-0.488,0.576-1.101,1.02-1.837,1.334c-0.736,0.313-1.597,0.469-2.581,0.469c-0.952,0-1.78-0.139-2.484-0.418
		s-1.289-0.686-1.753-1.219s-0.809-1.189-1.032-1.969c-0.224-0.777-0.336-1.666-0.336-2.666c0-0.965,0.122-1.846,0.366-2.646
		c0.244-0.799,0.61-1.484,1.099-2.057c0.487-0.57,1.098-1.014,1.83-1.326c0.732-0.314,1.591-0.471,2.575-0.471
		c0.96,0,1.792,0.139,2.496,0.414c0.704,0.273,1.286,0.678,1.747,1.211c0.46,0.533,0.802,1.189,1.026,1.969
		C55.641,122.074,55.753,122.969,55.753,123.975z M52.644,124.102c0-0.559-0.042-1.072-0.126-1.541
		c-0.084-0.471-0.226-0.879-0.426-1.227c-0.2-0.346-0.467-0.617-0.799-0.813c-0.332-0.193-0.75-0.291-1.254-0.291
		c-0.448,0-0.84,0.086-1.177,0.26c-0.336,0.174-0.611,0.428-0.828,0.762c-0.216,0.334-0.378,0.736-0.486,1.207
		c-0.107,0.469-0.161,1.004-0.161,1.605c0,0.559,0.043,1.072,0.132,1.543c0.088,0.469,0.229,0.877,0.426,1.225
		c0.196,0.346,0.462,0.615,0.798,0.807c0.337,0.189,0.753,0.285,1.249,0.285c0.456,0,0.853-0.088,1.188-0.26
		c0.336-0.174,0.612-0.426,0.828-0.756s0.376-0.73,0.479-1.199C52.592,125.238,52.644,124.703,52.644,124.102z"/>
	<path fill="#8BA7BD" d="M69.697,129.752c0,0.084-0.02,0.158-0.06,0.223c-0.04,0.063-0.11,0.115-0.21,0.158
		c-0.101,0.041-0.232,0.074-0.396,0.096c-0.164,0.02-0.37,0.031-0.618,0.031c-0.264,0-0.478-0.012-0.642-0.031
		c-0.164-0.021-0.294-0.055-0.391-0.096c-0.096-0.043-0.164-0.096-0.204-0.158c-0.04-0.064-0.06-0.139-0.06-0.223v-1.309
		c-0.593,0.678-1.194,1.186-1.807,1.523c-0.612,0.34-1.247,0.508-1.902,0.508c-0.736,0-1.354-0.127-1.854-0.381
		c-0.501-0.254-0.905-0.6-1.213-1.041c-0.308-0.439-0.528-0.949-0.66-1.529s-0.198-1.301-0.198-2.164v-6.932
		c0-0.086,0.022-0.158,0.066-0.223c0.044-0.063,0.124-0.117,0.24-0.158c0.115-0.043,0.271-0.074,0.468-0.096
		s0.438-0.031,0.727-0.031c0.296,0,0.54,0.01,0.732,0.031c0.191,0.021,0.346,0.053,0.462,0.096c0.115,0.041,0.198,0.096,0.246,0.158
		c0.048,0.064,0.071,0.137,0.071,0.223v6.398c0,0.592,0.036,1.045,0.108,1.357c0.072,0.314,0.182,0.582,0.33,0.807
		s0.336,0.398,0.564,0.521c0.228,0.121,0.494,0.184,0.798,0.184c0.385,0,0.771-0.148,1.158-0.445
		c0.389-0.295,0.803-0.727,1.243-1.295v-7.527c0-0.086,0.021-0.158,0.065-0.223c0.044-0.063,0.124-0.117,0.24-0.158
		c0.116-0.043,0.271-0.074,0.462-0.096c0.192-0.021,0.437-0.031,0.732-0.031s0.54,0.01,0.732,0.031
		c0.191,0.021,0.344,0.053,0.456,0.096c0.112,0.041,0.192,0.096,0.24,0.158c0.048,0.064,0.071,0.137,0.071,0.223V129.752z"/>
	<path fill="#8BA7BD" d="M80.474,128.635c0,0.371-0.022,0.658-0.066,0.857c-0.044,0.197-0.102,0.338-0.174,0.418
		s-0.179,0.152-0.318,0.217c-0.14,0.063-0.304,0.117-0.492,0.164c-0.188,0.047-0.392,0.082-0.612,0.107
		c-0.22,0.025-0.442,0.039-0.666,0.039c-0.6,0-1.12-0.08-1.561-0.242c-0.44-0.16-0.804-0.408-1.092-0.742s-0.501-0.756-0.637-1.264
		s-0.204-1.107-0.204-1.803v-5.801h-1.284c-0.152,0-0.269-0.1-0.348-0.299c-0.08-0.199-0.12-0.531-0.12-0.996
		c0-0.246,0.01-0.453,0.029-0.623c0.021-0.168,0.051-0.303,0.091-0.398c0.04-0.098,0.09-0.168,0.149-0.211
		c0.061-0.041,0.13-0.063,0.21-0.063h1.272v-2.527c0-0.084,0.022-0.16,0.066-0.229c0.044-0.066,0.124-0.125,0.24-0.17
		c0.115-0.047,0.271-0.082,0.468-0.102c0.196-0.021,0.438-0.033,0.727-0.033c0.296,0,0.542,0.012,0.738,0.033
		c0.195,0.02,0.35,0.055,0.462,0.102c0.112,0.045,0.192,0.104,0.24,0.17c0.048,0.068,0.071,0.145,0.071,0.229v2.527h2.329
		c0.08,0,0.15,0.021,0.21,0.063c0.061,0.043,0.11,0.113,0.15,0.211c0.04,0.096,0.069,0.23,0.09,0.398
		c0.02,0.17,0.03,0.377,0.03,0.623c0,0.465-0.04,0.797-0.12,0.996s-0.196,0.299-0.349,0.299h-2.341v5.318
		c0,0.619,0.093,1.082,0.276,1.391c0.185,0.309,0.513,0.463,0.984,0.463c0.16,0,0.304-0.014,0.433-0.043
		c0.128-0.031,0.241-0.064,0.342-0.102c0.1-0.039,0.184-0.072,0.252-0.102c0.068-0.031,0.13-0.045,0.187-0.045
		c0.048,0,0.094,0.014,0.138,0.045c0.044,0.029,0.078,0.088,0.102,0.178c0.024,0.088,0.046,0.209,0.066,0.361
		C80.463,128.203,80.474,128.396,80.474,128.635z"/>
	<path fill="#8BA7BD" d="M94.286,129.752c0,0.084-0.023,0.158-0.072,0.223c-0.048,0.063-0.128,0.115-0.239,0.158
		c-0.112,0.041-0.267,0.074-0.463,0.096c-0.195,0.02-0.438,0.031-0.726,0.031c-0.296,0-0.542-0.012-0.738-0.031
		c-0.196-0.021-0.351-0.055-0.462-0.096c-0.112-0.043-0.192-0.096-0.24-0.158c-0.048-0.064-0.072-0.139-0.072-0.223v-6.463
		c0-0.549-0.038-0.98-0.114-1.295c-0.076-0.313-0.186-0.582-0.33-0.805c-0.144-0.225-0.33-0.398-0.558-0.521
		c-0.229-0.123-0.494-0.184-0.799-0.184c-0.384,0-0.772,0.148-1.164,0.443c-0.393,0.297-0.801,0.729-1.225,1.295v7.529
		c0,0.084-0.023,0.158-0.072,0.223c-0.048,0.063-0.13,0.115-0.245,0.158c-0.116,0.041-0.271,0.074-0.463,0.096
		c-0.191,0.02-0.436,0.031-0.732,0.031c-0.296,0-0.54-0.012-0.731-0.031c-0.192-0.021-0.347-0.055-0.463-0.096
		c-0.115-0.043-0.197-0.096-0.246-0.158c-0.048-0.064-0.071-0.139-0.071-0.223v-16.695c0-0.084,0.023-0.16,0.071-0.229
		c0.049-0.066,0.131-0.125,0.246-0.17c0.116-0.047,0.271-0.084,0.463-0.109c0.191-0.025,0.436-0.037,0.731-0.037
		c0.297,0,0.541,0.012,0.732,0.037c0.192,0.025,0.347,0.063,0.463,0.109c0.115,0.045,0.197,0.104,0.245,0.17
		c0.049,0.068,0.072,0.145,0.072,0.229v6.26c0.521-0.543,1.051-0.945,1.591-1.213c0.54-0.266,1.103-0.4,1.687-0.4
		c0.728,0,1.342,0.127,1.843,0.381c0.5,0.254,0.904,0.602,1.212,1.041c0.308,0.441,0.53,0.955,0.666,1.543s0.204,1.301,0.204,2.139
		V129.752z"/>
	<path fill="#8BA7BD" d="M105.087,126.834c0-0.346,0.048-0.672,0.145-0.979s0.241-0.596,0.434-0.867
		c0.193-0.273,0.432-0.533,0.715-0.779c0.284-0.248,0.613-0.488,0.987-0.725c-0.211-0.283-0.394-0.551-0.548-0.803
		c-0.155-0.25-0.284-0.49-0.387-0.719c-0.102-0.229-0.178-0.445-0.228-0.654c-0.05-0.207-0.075-0.412-0.075-0.615
		c0-0.434,0.073-0.84,0.22-1.221s0.374-0.709,0.685-0.988c0.31-0.277,0.704-0.5,1.184-0.664c0.479-0.162,1.056-0.244,1.729-0.244
		c0.614,0,1.143,0.061,1.588,0.186c0.444,0.123,0.81,0.297,1.096,0.523c0.287,0.227,0.5,0.504,0.641,0.834
		c0.141,0.332,0.211,0.705,0.211,1.119c0,0.371-0.061,0.715-0.18,1.029c-0.12,0.316-0.302,0.615-0.544,0.9
		c-0.243,0.283-0.546,0.559-0.908,0.82c-0.362,0.264-0.787,0.527-1.271,0.793c0.157,0.191,0.334,0.395,0.53,0.607
		c0.195,0.215,0.397,0.428,0.605,0.641c0.207,0.213,0.416,0.426,0.627,0.637c0.211,0.209,0.415,0.404,0.614,0.584
		c0.075-0.125,0.145-0.266,0.206-0.428c0.062-0.16,0.114-0.33,0.157-0.51c0.044-0.18,0.079-0.361,0.105-0.547s0.04-0.369,0.04-0.547
		v-0.289c0-0.068,0.012-0.127,0.035-0.176c0.022-0.049,0.071-0.09,0.145-0.121s0.178-0.053,0.315-0.068s0.314-0.023,0.531-0.023
		c0.204,0,0.374,0.004,0.509,0.014c0.134,0.01,0.241,0.029,0.319,0.061c0.079,0.031,0.135,0.072,0.167,0.125
		s0.049,0.119,0.049,0.199v0.297c0,0.297-0.021,0.598-0.062,0.9c-0.041,0.303-0.102,0.598-0.18,0.885
		c-0.079,0.289-0.178,0.564-0.294,0.826c-0.117,0.264-0.246,0.51-0.387,0.738c0.205,0.166,0.382,0.307,0.531,0.418
		s0.276,0.199,0.382,0.264c0.104,0.064,0.192,0.109,0.263,0.135c0.07,0.023,0.129,0.037,0.176,0.037c0.063,0,0.124,0,0.18,0
		s0.101,0.021,0.136,0.064s0.062,0.121,0.079,0.232s0.026,0.275,0.026,0.492c0,0.229-0.005,0.408-0.014,0.537
		c-0.009,0.131-0.023,0.227-0.044,0.287c-0.021,0.063-0.056,0.113-0.104,0.154c-0.05,0.039-0.134,0.076-0.25,0.111
		c-0.117,0.033-0.258,0.051-0.422,0.051c-0.128,0-0.262-0.018-0.398-0.051c-0.138-0.035-0.297-0.1-0.479-0.195
		c-0.181-0.096-0.392-0.223-0.631-0.381c-0.24-0.158-0.518-0.359-0.834-0.607c-0.274,0.197-0.559,0.375-0.851,0.533
		c-0.293,0.158-0.598,0.289-0.917,0.395c-0.318,0.105-0.647,0.186-0.986,0.242c-0.34,0.055-0.702,0.082-1.088,0.082
		c-0.38,0-0.752-0.031-1.114-0.092c-0.362-0.063-0.703-0.156-1.021-0.283c-0.319-0.127-0.61-0.287-0.873-0.479
		s-0.488-0.418-0.676-0.682c-0.187-0.262-0.333-0.563-0.438-0.9C105.139,127.615,105.087,127.242,105.087,126.834z M107.473,126.705
		c0,0.266,0.047,0.51,0.14,0.732c0.094,0.223,0.229,0.414,0.404,0.574c0.175,0.162,0.393,0.287,0.653,0.377
		c0.26,0.09,0.56,0.135,0.899,0.135c0.175,0,0.349-0.018,0.521-0.053c0.173-0.033,0.342-0.08,0.509-0.139s0.324-0.129,0.474-0.213
		s0.288-0.176,0.417-0.273c-0.264-0.223-0.528-0.459-0.794-0.711c-0.267-0.25-0.525-0.502-0.776-0.756
		c-0.252-0.254-0.493-0.506-0.724-0.756c-0.231-0.25-0.438-0.486-0.618-0.709c-0.205,0.135-0.376,0.277-0.514,0.422
		s-0.25,0.293-0.338,0.441s-0.152,0.299-0.192,0.453C107.493,126.385,107.473,126.543,107.473,126.705z M108.455,120.572
		c0,0.129,0.021,0.264,0.062,0.402c0.04,0.141,0.098,0.285,0.171,0.438c0.073,0.15,0.165,0.313,0.276,0.482
		c0.11,0.17,0.236,0.354,0.377,0.551c0.345-0.197,0.633-0.379,0.864-0.547c0.23-0.166,0.416-0.33,0.557-0.486
		c0.141-0.158,0.24-0.316,0.299-0.475c0.058-0.156,0.087-0.318,0.087-0.486c0-0.148-0.026-0.287-0.078-0.418
		c-0.053-0.129-0.135-0.242-0.246-0.338s-0.249-0.172-0.412-0.227c-0.164-0.057-0.356-0.084-0.579-0.084
		c-0.246,0-0.455,0.029-0.627,0.088c-0.173,0.059-0.314,0.143-0.426,0.25c-0.111,0.109-0.192,0.236-0.245,0.381
		S108.455,120.404,108.455,120.572z"/>
	<path fill="#8BA7BD" d="M135.683,115.127c0,0.254-0.011,0.467-0.03,0.641s-0.052,0.311-0.096,0.412s-0.095,0.178-0.15,0.229
		s-0.12,0.076-0.192,0.076h-5.077v4.418h4.766c0.072,0,0.136,0.021,0.192,0.064c0.056,0.041,0.105,0.113,0.149,0.215
		s0.076,0.238,0.097,0.406c0.02,0.17,0.029,0.381,0.029,0.635s-0.01,0.467-0.029,0.635c-0.021,0.17-0.053,0.309-0.097,0.42
		c-0.044,0.109-0.094,0.188-0.149,0.234c-0.057,0.047-0.12,0.07-0.192,0.07h-4.766v6.119c0,0.092-0.023,0.174-0.072,0.24
		c-0.048,0.068-0.134,0.125-0.258,0.172s-0.286,0.082-0.486,0.107s-0.456,0.039-0.768,0.039c-0.305,0-0.559-0.014-0.763-0.039
		s-0.366-0.061-0.486-0.107s-0.206-0.104-0.258-0.172c-0.052-0.066-0.078-0.148-0.078-0.24v-14.893c0-0.371,0.09-0.641,0.271-0.805
		c0.18-0.166,0.401-0.248,0.666-0.248h7.31c0.072,0,0.137,0.023,0.192,0.07c0.056,0.045,0.106,0.121,0.15,0.229
		c0.044,0.105,0.076,0.246,0.096,0.424S135.683,114.873,135.683,115.127z"/>
	<path fill="#8BA7BD" d="M147.922,129.789c0,0.119-0.04,0.213-0.12,0.279c-0.08,0.068-0.206,0.117-0.378,0.146
		s-0.426,0.045-0.762,0.045c-0.36,0-0.622-0.016-0.786-0.045s-0.28-0.078-0.349-0.146c-0.068-0.066-0.102-0.16-0.102-0.279v-0.9
		c-0.44,0.498-0.942,0.889-1.507,1.168s-1.19,0.418-1.879,0.418c-0.567,0-1.09-0.078-1.566-0.234
		c-0.476-0.156-0.888-0.389-1.236-0.697c-0.348-0.311-0.618-0.693-0.81-1.15c-0.192-0.457-0.288-0.99-0.288-1.6
		c0-0.66,0.122-1.232,0.366-1.719c0.243-0.488,0.607-0.889,1.092-1.207c0.484-0.316,1.087-0.553,1.807-0.705
		c0.721-0.152,1.557-0.229,2.509-0.229h1.044v-0.686c0-0.355-0.034-0.666-0.102-0.932c-0.068-0.268-0.181-0.49-0.336-0.668
		c-0.156-0.178-0.364-0.309-0.624-0.393c-0.261-0.086-0.583-0.127-0.967-0.127c-0.504,0-0.954,0.059-1.351,0.178
		c-0.396,0.117-0.746,0.25-1.05,0.393c-0.305,0.145-0.559,0.275-0.763,0.395c-0.204,0.117-0.37,0.178-0.498,0.178
		c-0.088,0-0.166-0.029-0.234-0.09c-0.067-0.059-0.124-0.143-0.168-0.254c-0.044-0.109-0.078-0.244-0.102-0.406
		c-0.024-0.16-0.036-0.338-0.036-0.533c0-0.262,0.02-0.469,0.06-0.621s0.116-0.291,0.229-0.412c0.112-0.123,0.308-0.26,0.588-0.406
		c0.28-0.148,0.608-0.287,0.984-0.414s0.786-0.23,1.23-0.311s0.902-0.121,1.374-0.121c0.841,0,1.559,0.088,2.155,0.262
		c0.596,0.172,1.086,0.439,1.471,0.799c0.384,0.359,0.664,0.822,0.84,1.391c0.176,0.566,0.264,1.24,0.264,2.018V129.789z
		 M144.957,124.939h-1.152c-0.488,0-0.904,0.039-1.248,0.115s-0.624,0.189-0.84,0.342c-0.217,0.152-0.375,0.338-0.475,0.553
		c-0.1,0.217-0.15,0.463-0.15,0.742c0,0.475,0.143,0.848,0.427,1.117c0.284,0.271,0.678,0.406,1.183,0.406
		c0.424,0,0.813-0.113,1.17-0.342c0.355-0.229,0.718-0.563,1.086-1.004V124.939z"/>
	<path fill="#8BA7BD" d="M169.37,129.752c0,0.084-0.024,0.158-0.072,0.223c-0.048,0.063-0.128,0.115-0.24,0.158
		c-0.112,0.041-0.264,0.074-0.456,0.096c-0.192,0.02-0.437,0.031-0.732,0.031c-0.304,0-0.552-0.012-0.744-0.031
		c-0.192-0.021-0.347-0.055-0.462-0.096c-0.116-0.043-0.196-0.096-0.24-0.158c-0.044-0.064-0.066-0.139-0.066-0.223v-6.717
		c0-0.381-0.034-0.727-0.102-1.041c-0.068-0.313-0.172-0.582-0.313-0.805c-0.14-0.225-0.315-0.398-0.528-0.521
		c-0.212-0.123-0.466-0.184-0.762-0.184c-0.36,0-0.725,0.148-1.093,0.443c-0.368,0.297-0.768,0.729-1.2,1.295v7.529
		c0,0.084-0.023,0.158-0.071,0.223c-0.049,0.063-0.131,0.115-0.246,0.158c-0.116,0.041-0.271,0.074-0.463,0.096
		c-0.191,0.02-0.432,0.031-0.72,0.031c-0.296,0-0.54-0.012-0.732-0.031c-0.192-0.021-0.347-0.055-0.462-0.096
		c-0.116-0.043-0.198-0.096-0.246-0.158c-0.048-0.064-0.072-0.139-0.072-0.223v-6.717c0-0.381-0.034-0.727-0.102-1.041
		c-0.068-0.313-0.171-0.582-0.307-0.805c-0.136-0.225-0.312-0.398-0.528-0.521c-0.216-0.123-0.468-0.184-0.756-0.184
		c-0.368,0-0.736,0.148-1.104,0.443c-0.368,0.297-0.765,0.729-1.188,1.295v7.529c0,0.084-0.023,0.158-0.072,0.223
		c-0.048,0.063-0.13,0.115-0.245,0.158c-0.116,0.041-0.271,0.074-0.463,0.096c-0.191,0.02-0.436,0.031-0.732,0.031
		c-0.296,0-0.54-0.012-0.731-0.031c-0.192-0.021-0.347-0.055-0.463-0.096c-0.115-0.043-0.197-0.096-0.246-0.158
		c-0.048-0.064-0.071-0.139-0.071-0.223v-11.324c0-0.086,0.02-0.158,0.06-0.223c0.04-0.063,0.112-0.117,0.216-0.158
		c0.104-0.043,0.238-0.074,0.402-0.096s0.37-0.031,0.618-0.031c0.256,0,0.469,0.01,0.637,0.031s0.298,0.053,0.39,0.096
		c0.092,0.041,0.158,0.096,0.198,0.158c0.04,0.064,0.06,0.137,0.06,0.223v1.307c0.593-0.676,1.183-1.184,1.771-1.523
		c0.589-0.338,1.203-0.508,1.843-0.508c0.44,0,0.836,0.049,1.188,0.146s0.666,0.236,0.942,0.42c0.276,0.182,0.514,0.398,0.714,0.652
		s0.368,0.537,0.505,0.852c0.319-0.365,0.634-0.678,0.941-0.939c0.309-0.264,0.612-0.477,0.913-0.641c0.3-0.166,0.6-0.289,0.9-0.369
		c0.3-0.08,0.605-0.121,0.918-0.121c0.712,0,1.313,0.127,1.801,0.381c0.487,0.254,0.882,0.6,1.182,1.035
		c0.301,0.436,0.515,0.945,0.643,1.529s0.192,1.203,0.192,1.854V129.752z"/>
	<path fill="#8BA7BD" d="M176.989,114.594c0,0.643-0.124,1.088-0.372,1.332c-0.248,0.246-0.708,0.369-1.381,0.369
		c-0.68,0-1.139-0.119-1.374-0.355c-0.236-0.238-0.354-0.664-0.354-1.283c0-0.643,0.122-1.09,0.366-1.338
		c0.244-0.25,0.706-0.375,1.387-0.375c0.672,0,1.128,0.121,1.368,0.361C176.869,113.547,176.989,113.975,176.989,114.594z
		 M176.761,129.752c0,0.084-0.023,0.158-0.072,0.223c-0.048,0.063-0.13,0.115-0.245,0.158c-0.116,0.041-0.271,0.074-0.463,0.096
		c-0.191,0.02-0.436,0.031-0.732,0.031c-0.296,0-0.54-0.012-0.731-0.031c-0.192-0.021-0.347-0.055-0.463-0.096
		c-0.115-0.043-0.197-0.096-0.246-0.158c-0.048-0.064-0.071-0.139-0.071-0.223v-11.299c0-0.086,0.023-0.158,0.071-0.223
		c0.049-0.063,0.131-0.119,0.246-0.164c0.116-0.047,0.271-0.084,0.463-0.109c0.191-0.025,0.436-0.037,0.731-0.037
		c0.297,0,0.541,0.012,0.732,0.037c0.192,0.025,0.347,0.063,0.463,0.109c0.115,0.045,0.197,0.102,0.245,0.164
		c0.049,0.064,0.072,0.137,0.072,0.223V129.752z"/>
	<path fill="#8BA7BD" d="M184.199,129.752c0,0.084-0.023,0.158-0.072,0.223c-0.048,0.063-0.13,0.115-0.245,0.158
		c-0.116,0.041-0.271,0.074-0.463,0.096c-0.191,0.02-0.436,0.031-0.732,0.031c-0.296,0-0.54-0.012-0.731-0.031
		c-0.192-0.021-0.347-0.055-0.463-0.096c-0.115-0.043-0.197-0.096-0.246-0.158c-0.048-0.064-0.071-0.139-0.071-0.223v-16.695
		c0-0.084,0.023-0.16,0.071-0.229c0.049-0.066,0.131-0.125,0.246-0.17c0.116-0.047,0.271-0.084,0.463-0.109
		c0.191-0.025,0.436-0.037,0.731-0.037c0.297,0,0.541,0.012,0.732,0.037c0.192,0.025,0.347,0.063,0.463,0.109
		c0.115,0.045,0.197,0.104,0.245,0.17c0.049,0.068,0.072,0.145,0.072,0.229V129.752z"/>
	<path fill="#8BA7BD" d="M194.82,130.184l-1.297,4.012c-0.072,0.211-0.269,0.363-0.588,0.457c-0.32,0.092-0.788,0.139-1.404,0.139
		c-0.32,0-0.576-0.014-0.769-0.043c-0.192-0.031-0.336-0.08-0.433-0.146c-0.096-0.068-0.147-0.152-0.155-0.254
		c-0.009-0.102,0.016-0.225,0.071-0.369l1.429-3.795c-0.104-0.051-0.198-0.129-0.282-0.234c-0.084-0.107-0.146-0.219-0.186-0.338
		l-3.686-10.41c-0.104-0.295-0.156-0.521-0.156-0.678c0-0.158,0.049-0.279,0.145-0.369c0.096-0.088,0.258-0.15,0.486-0.184
		c0.228-0.035,0.529-0.051,0.906-0.051c0.344,0,0.616,0.006,0.816,0.02c0.199,0.012,0.355,0.043,0.468,0.094
		s0.196,0.129,0.252,0.236c0.056,0.105,0.112,0.256,0.168,0.449l2.521,7.58h0.036l2.305-7.732c0.048-0.219,0.11-0.365,0.187-0.438
		s0.202-0.125,0.378-0.158c0.176-0.035,0.484-0.051,0.924-0.051c0.345,0,0.631,0.016,0.858,0.051
		c0.229,0.033,0.396,0.098,0.505,0.189c0.107,0.094,0.161,0.219,0.161,0.375s-0.031,0.34-0.096,0.553L194.82,130.184z"/>
	<path fill="#8BA7BD" d="M219.541,127.695c0,0.211-0.006,0.391-0.018,0.539c-0.013,0.148-0.03,0.275-0.055,0.381
		c-0.023,0.105-0.056,0.197-0.096,0.273s-0.104,0.162-0.192,0.26s-0.258,0.223-0.51,0.375s-0.561,0.299-0.924,0.438
		c-0.364,0.141-0.78,0.256-1.249,0.35c-0.468,0.092-0.975,0.139-1.519,0.139c-1.064,0-2.024-0.174-2.881-0.52
		c-0.856-0.348-1.584-0.865-2.185-1.555c-0.6-0.691-1.061-1.553-1.38-2.584c-0.32-1.033-0.48-2.234-0.48-3.605
		c0-1.396,0.176-2.637,0.528-3.721c0.352-1.082,0.844-1.992,1.477-2.729c0.632-0.736,1.39-1.295,2.274-1.676
		c0.884-0.381,1.858-0.572,2.923-0.572c0.433,0,0.848,0.039,1.248,0.115s0.771,0.176,1.11,0.299
		c0.341,0.121,0.646,0.264,0.919,0.424c0.271,0.162,0.462,0.299,0.569,0.414c0.108,0.113,0.183,0.209,0.223,0.285
		s0.072,0.174,0.096,0.291c0.024,0.119,0.042,0.258,0.055,0.42c0.012,0.16,0.018,0.359,0.018,0.596c0,0.254-0.008,0.471-0.024,0.648
		c-0.016,0.178-0.044,0.32-0.084,0.432c-0.04,0.109-0.088,0.189-0.144,0.24c-0.057,0.051-0.12,0.076-0.192,0.076
		c-0.12,0-0.272-0.074-0.456-0.221c-0.185-0.148-0.422-0.314-0.714-0.496s-0.641-0.348-1.045-0.494
		c-0.404-0.148-0.886-0.223-1.446-0.223c-0.616,0-1.166,0.133-1.65,0.4c-0.484,0.266-0.896,0.646-1.236,1.143
		c-0.34,0.494-0.599,1.094-0.774,1.795c-0.176,0.703-0.264,1.494-0.264,2.375c0,0.965,0.094,1.801,0.282,2.508
		c0.188,0.705,0.456,1.287,0.804,1.744c0.349,0.457,0.769,0.799,1.261,1.023c0.492,0.223,1.046,0.336,1.662,0.336
		c0.561,0,1.045-0.07,1.453-0.209c0.407-0.141,0.758-0.295,1.05-0.465c0.292-0.168,0.532-0.32,0.721-0.457
		c0.188-0.135,0.334-0.203,0.438-0.203c0.08,0,0.145,0.018,0.192,0.051c0.048,0.035,0.088,0.102,0.12,0.203
		c0.031,0.102,0.056,0.244,0.072,0.426C219.533,127.146,219.541,127.391,219.541,127.695z"/>
	<path fill="#8BA7BD" d="M226.056,129.752c0,0.084-0.023,0.158-0.072,0.223c-0.048,0.063-0.13,0.115-0.245,0.158
		c-0.116,0.041-0.271,0.074-0.463,0.096c-0.191,0.02-0.436,0.031-0.732,0.031c-0.296,0-0.54-0.012-0.731-0.031
		c-0.192-0.021-0.347-0.055-0.463-0.096c-0.115-0.043-0.197-0.096-0.246-0.158c-0.048-0.064-0.071-0.139-0.071-0.223v-16.695
		c0-0.084,0.023-0.16,0.071-0.229c0.049-0.066,0.131-0.125,0.246-0.17c0.116-0.047,0.271-0.084,0.463-0.109
		c0.191-0.025,0.436-0.037,0.731-0.037c0.297,0,0.541,0.012,0.732,0.037c0.192,0.025,0.347,0.063,0.463,0.109
		c0.115,0.045,0.197,0.104,0.245,0.17c0.049,0.068,0.072,0.145,0.072,0.229V129.752z"/>
	<path fill="#8BA7BD" d="M240.624,129.752c0,0.084-0.02,0.158-0.06,0.223c-0.04,0.063-0.11,0.115-0.21,0.158
		c-0.101,0.041-0.232,0.074-0.396,0.096c-0.164,0.02-0.37,0.031-0.618,0.031c-0.264,0-0.478-0.012-0.642-0.031
		c-0.164-0.021-0.294-0.055-0.391-0.096c-0.096-0.043-0.164-0.096-0.204-0.158c-0.04-0.064-0.06-0.139-0.06-0.223v-1.309
		c-0.593,0.678-1.194,1.186-1.807,1.523c-0.612,0.34-1.247,0.508-1.902,0.508c-0.736,0-1.354-0.127-1.854-0.381
		c-0.501-0.254-0.905-0.6-1.213-1.041c-0.308-0.439-0.528-0.949-0.66-1.529s-0.198-1.301-0.198-2.164v-6.932
		c0-0.086,0.022-0.158,0.066-0.223c0.044-0.063,0.124-0.117,0.24-0.158c0.115-0.043,0.271-0.074,0.468-0.096
		s0.438-0.031,0.727-0.031c0.296,0,0.54,0.01,0.732,0.031c0.191,0.021,0.346,0.053,0.462,0.096c0.115,0.041,0.198,0.096,0.246,0.158
		c0.048,0.064,0.071,0.137,0.071,0.223v6.398c0,0.592,0.036,1.045,0.108,1.357c0.072,0.314,0.182,0.582,0.33,0.807
		s0.336,0.398,0.564,0.521c0.228,0.121,0.494,0.184,0.798,0.184c0.385,0,0.771-0.148,1.158-0.445
		c0.389-0.295,0.803-0.727,1.243-1.295v-7.527c0-0.086,0.021-0.158,0.065-0.223c0.044-0.063,0.124-0.117,0.24-0.158
		c0.116-0.043,0.271-0.074,0.462-0.096c0.192-0.021,0.437-0.031,0.732-0.031s0.54,0.01,0.732,0.031
		c0.191,0.021,0.344,0.053,0.456,0.096c0.112,0.041,0.192,0.096,0.24,0.158c0.048,0.064,0.071,0.137,0.071,0.223V129.752z"/>
	<path fill="#8BA7BD" d="M255.843,123.938c0,1.006-0.104,1.912-0.313,2.717c-0.208,0.803-0.508,1.488-0.9,2.057
		c-0.392,0.566-0.874,1.002-1.446,1.307s-1.223,0.457-1.95,0.457c-0.36,0-0.696-0.035-1.009-0.107
		c-0.312-0.072-0.61-0.188-0.895-0.35c-0.284-0.16-0.563-0.363-0.84-0.609c-0.276-0.244-0.559-0.541-0.847-0.889v1.232
		c0,0.092-0.021,0.172-0.065,0.234c-0.044,0.064-0.116,0.117-0.216,0.158c-0.101,0.043-0.234,0.072-0.402,0.09
		c-0.168,0.016-0.372,0.025-0.612,0.025c-0.248,0-0.454-0.01-0.618-0.025c-0.164-0.018-0.296-0.047-0.396-0.09
		c-0.1-0.041-0.17-0.094-0.21-0.158c-0.04-0.063-0.06-0.143-0.06-0.234v-16.695c0-0.084,0.023-0.16,0.071-0.229
		c0.049-0.066,0.131-0.125,0.246-0.17c0.116-0.047,0.271-0.084,0.463-0.109c0.191-0.025,0.436-0.037,0.731-0.037
		c0.297,0,0.541,0.012,0.732,0.037c0.192,0.025,0.347,0.063,0.463,0.109c0.115,0.045,0.197,0.104,0.245,0.17
		c0.049,0.068,0.072,0.145,0.072,0.229v6.26c0.272-0.289,0.544-0.533,0.816-0.736s0.544-0.371,0.816-0.502
		c0.271-0.131,0.552-0.227,0.84-0.285c0.288-0.061,0.593-0.09,0.912-0.09c0.793,0,1.465,0.168,2.017,0.502
		c0.553,0.334,1.003,0.785,1.351,1.352c0.349,0.568,0.603,1.23,0.763,1.988C255.763,122.301,255.843,123.1,255.843,123.938z
		 M252.71,124.166c0-0.482-0.034-0.949-0.103-1.396c-0.068-0.449-0.186-0.848-0.354-1.193c-0.168-0.348-0.386-0.625-0.653-0.832
		c-0.269-0.207-0.606-0.311-1.015-0.311c-0.2,0-0.396,0.029-0.588,0.088c-0.192,0.061-0.391,0.162-0.595,0.305
		c-0.204,0.145-0.414,0.33-0.63,0.559s-0.444,0.512-0.685,0.852v3.758c0.424,0.574,0.83,1.014,1.219,1.314
		c0.388,0.299,0.794,0.449,1.218,0.449c0.393,0,0.725-0.105,0.997-0.316c0.271-0.213,0.498-0.486,0.678-0.826
		c0.18-0.338,0.311-0.723,0.391-1.154C252.669,125.029,252.71,124.598,252.71,124.166z"/>
</g>
<g>
	<polygon fill="#921A1D" points="0.436,48.703 70.979,0 136.694,41.834 122.658,41.834 71.946,10.129 25.465,41.582 38.838,41.845 
		38.987,106.523 30.277,106.523 30.577,48.703 	"/>
	<polygon fill="#921A1D" points="95.236,2.646 110.023,2.645 110.023,27.295 95.109,18.548 	"/>
</g>
</svg>
