<?xml version="1.0" encoding="utf-8"?>
<!-- Generator: Adobe Illustrator 16.0.0, SVG Export Plug-In . SVG Version: 6.00 Build 0)  -->
<!DOCTYPE svg PUBLIC "-//W3C//DTD SVG 1.1//EN" "http://www.w3.org/Graphics/SVG/1.1/DTD/svg11.dtd">
<svg version="1.1" xmlns="http://www.w3.org/2000/svg" xmlns:xlink="http://www.w3.org/1999/xlink" x="0px" y="0px" width="284px"
	 height="140.333px" viewBox="0 0 284 140.333" enable-background="new 0 0 284 140.333" xml:space="preserve">
<g id="Layer_1">
	<path fill="#4A86C2" d="M275.333,100c0,1.104-0.896,2-2,2H36c-1.104,0-2-0.896-2-2v-1c0-1.104,0.896-2,2-2h237.333
		c1.104,0,2,0.896,2,2V100z"/>
	<line fill="none" x1="38.667" y1="69.375" x2="96.667" y2="47.333"/>
	<line fill="none" x1="96.667" y1="47.333" x2="118" y2="55.333"/>
	<line fill="none" x1="118" y1="55.333" x2="118" y2="42.667"/>
	<line fill="none" x1="118" y1="42.667" x2="130.667" y2="42.667"/>
	<line fill="none" x1="130.667" y1="42.667" x2="130.667" y2="60"/>
	<line fill="none" x1="130.667" y1="60" x2="155.334" y2="69.375"/>
	<line fill="none" x1="155.334" y1="69.375" x2="38.667" y2="69.375"/>
</g>
<g id="Layer_2">
	
		<rect x="55.833" y="69.375" fill="none" stroke="#4A86C2" stroke-width="1.3" stroke-miterlimit="10" width="81.833" height="29.959"/>
	
		<text transform="matrix(0.8594 0.0052 -0.3334 0.9428 10.3345 122.333)" fill="#397C47" font-family="'ScriptMTBold'" font-size="26">Somali Youth &amp; Family Club</text>
	<polygon fill="none" stroke="#C7243F" stroke-width="1.3" stroke-miterlimit="10" points="117.334,42.667 117.334,54.667 
		96.334,46.667 37.334,69.375 154,69.375 132.667,62 132.833,42.667 	"/>
	<rect x="72.833" y="76.5" fill="none" stroke="#4A86C2" stroke-width="1.3" stroke-miterlimit="10" width="9.333" height="8.333"/>
	<rect x="92.833" y="76.5" fill="none" stroke="#4A86C2" stroke-width="1.3" stroke-miterlimit="10" width="9.333" height="8.333"/>
	
		<rect x="113.833" y="76.5" fill="none" stroke="#4A86C2" stroke-width="1.3" stroke-miterlimit="10" width="9.333" height="8.333"/>
</g>
<g id="LETTER_s">
	
		<text transform="matrix(0.9455 -0.0036 -0.2 0.9798 12.3325 100.334)" fill="#4A86C2" font-family="'ScriptMTBold'" font-size="126.8027">S</text>
</g>
</svg>
